<svg xmlns="http://www.w3.org/2000/svg" viewBox="0 0 512 512"><path d="M447.56,21.1V435.67l-52.21,4.78V491c-51.38-3.87-100.92-7.57-150.46-11.35-40.48-3.08-81-5.61-121.4-9.74-13.56-1.38-28.85-3.94-39.4-11.48-9.36-6.69-18.59-21-18.71-32-1.32-118-.92-236-.72-354,0-19.12,13.68-34.76,36.08-39.18,16.85-3.32,34.33-4.11,51.57-4.63,91.25-2.72,182.51-5,273.77-7.4C432.59,21,439.12,21.1,447.56,21.1ZM91.69,71.75c0,9.41,20.64,12,30.39,12.89S240.2,94,299.26,98.59c31.65,2.48,63.27,5.21,96.32,7.94V408.76h24.17V49.69C317.68,52.51,124.47,58,117.93,58.44S91.69,62.33,91.69,71.75Zm32.8,101.88,216.71,18V160.24L124.49,144.9Zm28.18,68.07,158.32,13v-30.5L152.67,213Z"/></svg>
